<svg width="173" height="70" viewBox="0 0 173 70" fill="none" xmlns="http://www.w3.org/2000/svg">
<mask id="path-1-outside-1" maskUnits="userSpaceOnUse" x="11.5421" y="0.42981" width="162" height="26" fill="black">
<rect fill="white" x="11.5421" y="0.42981" width="162" height="26"/>
<path d="M12.5421 20.7738V3.97381H23.3661V1.42981H29.6541V3.97381H40.4781V20.7738H29.6301V23.7978H23.3661V20.7738H12.5421ZM18.8061 17.3658H23.3661V7.40581H18.8061V17.3658ZM29.6301 17.3658H34.2141V7.40581H29.6301V17.3658ZM42.8843 11.1738V8.05381H50.2043L51.4043 9.25381L52.6043 8.05381H67.3643V19.3338L51.8843 21.2538V24.8538H45.8843V11.1738H42.8843ZM51.8843 18.2538L61.3643 17.0538V11.1738H51.8843V18.2538ZM69.5327 11.1738V8.05381H93.7727V14.4138L78.5327 16.5738V17.6538H87.7727V16.5738L93.7727 15.9738V20.7738H72.5327V11.1738H69.5327ZM78.5327 13.4778L87.7727 12.2538V11.1738H78.5327V13.4778ZM97.8434 20.7738V16.2138L103.843 16.8138V17.8938H112.963V16.8378L110.203 15.8538H105.403V12.9738H110.203L112.963 12.0138V10.9338H103.843V12.0138L97.8434 12.6138V8.05381H118.963V12.8538L114.763 14.4138L118.963 15.9738V20.7738H97.8434ZM120.884 11.1738V8.05381H145.124V14.4138L129.884 16.5738V17.6538H139.124V16.5738L145.124 15.9738V20.7738H123.884V11.1738H120.884ZM129.884 13.4778L139.124 12.2538V11.1738H129.884V13.4778ZM147.275 11.1738V8.05381H154.595L155.795 9.25381L156.995 8.05381H171.755V19.3338L156.275 21.2538V24.8538H150.275V11.1738H147.275ZM156.275 18.2538L165.755 17.0538V11.1738H156.275V18.2538Z"/>
</mask>
<path d="M12.5421 20.7738V3.97381H23.3661V1.42981H29.6541V3.97381H40.4781V20.7738H29.6301V23.7978H23.3661V20.7738H12.5421ZM18.8061 17.3658H23.3661V7.40581H18.8061V17.3658ZM29.6301 17.3658H34.2141V7.40581H29.6301V17.3658ZM42.8843 11.1738V8.05381H50.2043L51.4043 9.25381L52.6043 8.05381H67.3643V19.3338L51.8843 21.2538V24.8538H45.8843V11.1738H42.8843ZM51.8843 18.2538L61.3643 17.0538V11.1738H51.8843V18.2538ZM69.5327 11.1738V8.05381H93.7727V14.4138L78.5327 16.5738V17.6538H87.7727V16.5738L93.7727 15.9738V20.7738H72.5327V11.1738H69.5327ZM78.5327 13.4778L87.7727 12.2538V11.1738H78.5327V13.4778ZM97.8434 20.7738V16.2138L103.843 16.8138V17.8938H112.963V16.8378L110.203 15.8538H105.403V12.9738H110.203L112.963 12.0138V10.9338H103.843V12.0138L97.8434 12.6138V8.05381H118.963V12.8538L114.763 14.4138L118.963 15.9738V20.7738H97.8434ZM120.884 11.1738V8.05381H145.124V14.4138L129.884 16.5738V17.6538H139.124V16.5738L145.124 15.9738V20.7738H123.884V11.1738H120.884ZM129.884 13.4778L139.124 12.2538V11.1738H129.884V13.4778ZM147.275 11.1738V8.05381H154.595L155.795 9.25381L156.995 8.05381H171.755V19.3338L156.275 21.2538V24.8538H150.275V11.1738H147.275ZM156.275 18.2538L165.755 17.0538V11.1738H156.275V18.2538Z" stroke="#FF6B31" stroke-width="2" mask="url(#path-1-outside-1)"/>
<path d="M26.4239 16.822L27.7802 37.9622L39.5249 20.3324L30.1294 39.3186L49.1155 29.9231L31.4857 41.6678L52.6259 43.0241L31.4857 44.3804L49.1155 56.1251L30.1294 46.7296L39.5249 65.7158L27.7802 48.0859L26.4239 69.2262L25.0676 48.0859L13.3228 65.7158L22.7183 46.7296L3.73221 56.1251L21.362 44.3804L0.221802 43.0241L21.362 41.6678L3.73221 29.9231L22.7183 39.3186L13.3228 20.3324L25.0676 37.9622L26.4239 16.822Z" fill="#FF6B31"/>
<line x1="26.3046" y1="37.6917" x2="26.3046" y2="2.69165" stroke="#FF6B31" stroke-width="4"/>
</svg>
